<svg xmlns="http://www.w3.org/2000/svg" viewBox="0 0 64 64">
  <rect width="64" height="64" rx="16" fill="#18181b"/>
  <ellipse cx="32" cy="34" rx="22" ry="18" fill="#f8d9cc"/>
  <ellipse cx="32" cy="36" rx="19" ry="14" fill="#fff4ee"/>
  <ellipse cx="24" cy="30" rx="3" ry="2.5" fill="#f59e9e" opacity="0.55"/>
  <ellipse cx="40" cy="30" rx="3" ry="2.5" fill="#f59e9e" opacity="0.55"/>
  <path d="M32 15c4.5-4.5 10.5-4.3 14 0.3-4.8 4-9.5 5.2-14 3.4-1.4-1.7-1.4-2.9 0-3.7Z" fill="#7dd3a7"/>
  <path d="M32 15c-3.2-2.3-6.8-2.9-11.1-1.8 2.3 4 5.9 6 11 5.8 0.9-1.4 0.9-2.7 0.1-4Z" fill="#34d399"/>
  <path d="M27 40c3.2 2.2 6.8 2.2 10 0" fill="none" stroke="#d9776b" stroke-width="2.2" stroke-linecap="round"/>
</svg>